<svg xmlns="http://www.w3.org/2000/svg" viewBox="0 0 88.35487 98.07026"><title>GirlReading</title><g id="Layer_2" data-name="Layer 2"><g id="Layer_1-2" data-name="Layer 1"><path d="M79.56752,41.745c-.05261.21356-.10669.35882.002.53039.44873.73316-.02063.62683-.12647,1.04083-.33618,1.12964.46826.32984-.04248,1.59144-.5,1.171-.38171,1.42315-.26257,1.74536.10949.31183.21826.7033-.49976,1.99218A5.86771,5.86771,0,0,0,78.22,51.17726c-.13794.46246-.53308.29394-.58753,1.37744a6.584,6.584,0,0,1-.448.801c-.41529.36426-.46949.09113-.47742.75861-.035.96588-.1521,1.39734.135,1.24609.27344-.12982,1.52038-.55243,1.61-1.14581.06128-.4787.72852-1.907,1.33411-3.91882a33.11814,33.11814,0,0,0,1.373-7.18036,30.53817,30.53817,0,0,0-.27014-7.05322c-.31018-1.90436-.73572-3.1427-.94983-3.1803-2.21753-.35681-1.22852,1.16089-.73877,2.9483a1.98963,1.98963,0,0,1,.11023.984,2.03562,2.03562,0,0,1,.34692.95429,2.63556,2.63556,0,0,1-.06445,1.00457c.01135.16242.19153.31562.1969.48377a1.85385,1.85385,0,0,1-.19483,1.00213c-.01049.16358.15125.32727.13025.49463-.01977.165-.17956.329-.21045.49427C79.485,41.41084,79.60976,41.58064,79.56752,41.745Z"/><path d="M13.14052,41.86512a1.686,1.686,0,0,0-.001-.85943c-.45007-1.17731.02759-1.01477.157-1.68775.40149-1.83544-.45911-.51953.177-2.5675.65808-1.89844.60474-2.29556.54834-2.80228-.04151-.49069-.109-1.11474,1.00378-3.16922a14.437,14.437,0,0,0,.95825-2.60174,6.85731,6.85731,0,0,0,.33936-1.33225c.32141-.71246.68921-.48581,1.20093-2.11493a13.328,13.328,0,0,1,.854-1.2229c.6344-.57272.5763-.182.89527-1.15442.49389-1.4024.83264-2.01184.42248-1.76879-.19458.11859-.6969.34164-1.20788.64627a3.03671,3.03671,0,0,0-1.17029,1.13217c-.27088.69452-1.67346,2.79953-2.98816,5.91437a35.76833,35.76833,0,0,0-2.76624,11.41067A33.39912,33.39912,0,0,0,12.663,50.99263c.84986,3.00049,1.85584,4.86816,2.09046,4.91888,2.49243.46784.73108-1.786-.29859-4.59015a4.56185,4.56185,0,0,1-.38623-1.55017,4.38984,4.38984,0,0,1-.56933-1.51092,5.69856,5.69856,0,0,1-.11829-1.60779c-.0398-.25989-.24585-.5022-.26978-.77289a4.07168,4.07168,0,0,1,.08057-1.61554c-.00012-.264-.176-.52527-.17-.79523.0133-.26678.16589-.534.18591-.801C13.22682,42.40419,13.10817,42.13246,13.14052,41.86512Z"/><path d="M28.66823,41.707c-2.78662,0-4.96973-1.45361-4.96973-3.30908s2.18311-3.30908,4.96973-3.30908,4.96924,1.45361,4.96924,3.30908S31.45485,41.707,28.66823,41.707Zm0-5.61816c-2.15185,0-3.96973,1.05762-3.96973,2.30908S26.51638,40.707,28.66823,40.707c2.15137,0,3.96924-1.05761,3.96924-2.30908S30.8196,36.0888,28.66823,36.0888Z"/><path d="M62.43141,41.707c-2.85351,0-5.08837-1.45361-5.08837-3.30908s2.23486-3.30908,5.08837-3.30908,5.08838,1.45361,5.08838,3.30908S65.28493,41.707,62.43141,41.707Zm0-5.61816c-2.2163,0-4.08837,1.05762-4.08837,2.30908S60.21511,40.707,62.43141,40.707s4.08838-1.05761,4.08838-2.30908S64.64772,36.0888,62.43141,36.0888Z"/><path d="M45.83412,39.49189a6.66459,6.66459,0,0,0,.37659,2.975,3.18929,3.18929,0,0,0,1.95471,1.90491c.93116.40741,1.83338.82422,2.67456,1.28656a10.43581,10.43581,0,0,1,1.20374.76459,3.15476,3.15476,0,0,1,.99829,1.111,1.24142,1.24142,0,0,1,.07153.91412,1.6132,1.6132,0,0,1-.20349.3935,3.21416,3.21416,0,0,1-.22412.26147,5.00434,5.00434,0,0,1-.925.73346,7.29439,7.29439,0,0,1-1.68664.78131,5.70651,5.70651,0,0,1-1.625.3006,1.70824,1.70824,0,0,1-1.59668-.7237c-.03968-.11932.03491-.17785.20373-.17279.1648.01227.4347.06556.87293.084a4.50827,4.50827,0,0,0,1.3446-.11829,6.50506,6.50506,0,0,0,2.5603-1.21783,2.07059,2.07059,0,0,0,.45386-.49414.39391.39391,0,0,0-.00635-.42389,2.65222,2.65222,0,0,0-.83581-.85193,9.71007,9.71007,0,0,0-1.10486-.69122c-.141-.086-.27478-.20551-.43286-.29889-.14832-.08942-.30628-.17316-.464-.2555,0,0-.74585-.27868-1.06384-.39746-.192-.07708-.34973-.22229-.53186-.29516a4.445,4.445,0,0,1-.60352-.212,2.58528,2.58528,0,0,1-.5542-.40619,3.91781,3.91781,0,0,1-.75708-.78613c-.12878-.16235-.16736-.21985-.16736-.21985a4.04083,4.04083,0,0,1-.22888-.63348,6.12872,6.12872,0,0,1-.31689-1.262,4.84931,4.84931,0,0,1,.02978-.63733,2.25158,2.25158,0,0,1,.20935-1.22784C45.67787,39.23762,45.85146,39.34346,45.83412,39.49189Z"/><path d="M41.42067,53.98036a8.70216,8.70216,0,0,0,2.46485,2.14844,5.05616,5.05616,0,0,0,2.69165.67279,8.53848,8.53848,0,0,0,2.02856-.32959c.48633-.13867.75855-.246.75855-.246.76391-.20465,1.51965.05823.5614.64325a9.73164,9.73164,0,0,1-2.43933.6839,6.68982,6.68982,0,0,1-1.71753.03144,5.41652,5.41652,0,0,1-.77747-.144c-.09338-.035-.18274-.1007-.282-.14251l-.28491-.12311-.25269-.053c-.13464-.03992-.29541-.09045-.39282-.1283-.115-.04419-.18213-.16626-.28491-.21447a3.279,3.279,0,0,1-.3385-.12024c-.104-.06391-.183-.15766-.27405-.22327-.45947-.31775-.58228-.39441-.58228-.39441-.09472-.07965-.13672-.20459-.21435-.2821a6.42309,6.42309,0,0,1-.47132-.50757,2.43279,2.43279,0,0,1-.15344-.31885c-.09448-.18292-.2406-.1889-.25879-.65045C41.19619,53.9778,41.37307,53.91737,41.42067,53.98036Z"/><path d="M34.31618,56.12245a30.56554,30.56554,0,0,1,5.413,1.95087c.69373.33923,1.322.64642,1.90943.93371l.4331.21222.60376.26746c.421.18188.82264.34961,1.2251.50671l-.0011.93982c.35376,12.12781.53089,18.20148.61963,21.24329.10547,2.99676.12927,3.00573.12927,3.00573s.0354,2.11475.07471,4.45667c.0448,3.38983.09387,7.10974.11133,8.43133l-4.148-1.50909-.92688-.3512-.60339-.24072c-.4209-.17358-.88172-.36359-1.37586-.56744-.98266-.42163-2.0979-.90027-3.29346-1.41339-2.37658-1.05976-5.07214-2.26185-7.6687-3.41974-5.19055-2.37775-9.98474-4.57392-11.03589-5.05548.02344-.31415.026-.34674.002-.03894.16443-2.27295,1.24988-1.44355,1.37988-.92487a.46593.46593,0,0,1,.0907.02026q13.179,4.67891,24.14123,8.5708l-.0216-.29589q-.01044-1.19715-.02051-2.37171-.01886-2.44848-.03723-4.80383-.03132-4.71121-.06018-9.05817c-.02417-5.33685-.04639-10.2362-.06677-14.72668C35.8633,59.91975,31.14846,58.181,26.99147,56.6479q-3.37371-1.26416-6.30175-2.36145-1.46394-.55418-2.82129-1.06787l-.15161-.0578-.00745-.00476-.01563-.00989-.03515-.02136-.08594-.04956L17.552,53.157l-.01086.05121-.0055.02832-.00573.30152q-.02546,1.39434-.04847,2.65265c-.042,1.6784-.07959,3.17926-.113,4.5141-.08216,2.66925-.17713,4.67364-.28138,6.10522-.20861,2.86316-.45446,3.43512-.709,2.4527a54.809,54.809,0,0,1-.76172-6.87366c-.12182-1.67718-.23877-3.55872-.34729-5.55261-.05078-.99713-.1029-2.0221-.15588-3.06348-.04627-1.45758-.09326-2.938-.14051-4.42547,2.18189.73114,4.38172,1.46826,6.52576,2.18676,1.74817.595,3.45093,1.17462,5.04822,1.71839C29.73415,54.3614,32.48488,55.37025,34.31618,56.12245Z"/><path d="M47.10549,97.11574l-.221.09527c-.05981-1.01251-.09839-2.04919-.12024-3.04883q-.01062-.727-.02063-1.41015l.0011-.79969c.0144-1.03479.07776-1.947.154-2.77618a38.4211,38.4211,0,0,0,.32141-4.293c-.54345-19.1336-.68579-24.14606-.72119-25.392l.87647-.352,12.717-4.89813c1.43493-.51331,3.71032-1.235,6.3435-2.03644,1.31848-.39508,2.72437-.8164,4.15821-1.246l1.08093-.31891c.38281-.1142.63122-.17859,1.30737-.40027,1.0929-.34686,2.18506-.69342,3.26514-1.03625-.06445,1.38086-.12793,2.743-.1897,4.0653-.06335.86444-.12488,1.70288-.18347,2.50129-.12061,1.59655-.22925,3.0332-.3175,4.199-.17933,2.3313-.28064,3.57861-.22156,2.85474-.173,2.11975-1.36524,2.02594-1.39221-.34742q-.03406-3.06582-.06714-6.032-.01593-1.48316-.03162-2.94159l-.00769-.36444-.00757-.15515-.015-.29065c.33593-.09436-3.16809,1.22315-5.32068,2.04151q-3.55188,1.34481-6.93286,2.62487-6.1789,2.33579-11.75061,4.442c.03735,6.48852.07165,12.43091.1029,17.8645.00891,4.83118.01685,9.2099.02417,13.16925,5.29285-1.91473,9.801-3.54571,13.61145-4.92419q3.3858-1.19706,6.16443-2.17938,1.39527-.48459,2.64636-.91907.59967-.20526,1.16565-.39911l.183-.03583.02124-.11474.01086-.06214.00269-.016.0028-.09473.0055-.18786q.024-.74734.04565-1.428c.03626-.90784.069-1.7284.09839-2.46643.0686-1.47553.14282-2.61963.22144-3.46808.15722-1.69684.3319-2.21112.5133-1.82922a16.97785,16.97785,0,0,1,.55383,3.54785c.09205.94391.18323,2.04028.272,3.25323.04187.60669.08581,1.24231.13134,1.90247.04078.761.08326,1.55029.12684,2.36273-2.3136.97967-4.85315,2.05505-7.4469,3.15332-2.49976,1.04144-5.05933,2.0863-7.51233,3.06622s-4.79956,1.8949-6.87329,2.67664c-1.04187.38428-2.0127.74231-2.89148,1.0664C49.53066,96.25581,48.22438,96.719,47.10549,97.11574Z"/><path d="M48.27785.1562A14.426,14.426,0,0,0,44.41762.11113,27.60162,27.60162,0,0,0,41.492.70805c-.70276.18811-1.19556.29987-1.6206.44232A8.17748,8.17748,0,0,0,38.627,1.5377l-.74084.31723c-.26819.12906-.53211.29086-.861.484a23.90316,23.90316,0,0,0-4.3186,2.98254,6.72088,6.72088,0,0,1-1.20618.85788,8.75937,8.75937,0,0,1-3.99694,1.19779c-.97034.042-2.06556.02273-2.97937.14441a17.88172,17.88172,0,0,0-2.44678.49032,15.71155,15.71155,0,0,0-3.32434,1.30265,12.47645,12.47645,0,0,0-3.19361,2.36261A18.12845,18.12845,0,0,0,12.789,15.21461,21.4479,21.4479,0,0,0,11.094,19.01777c-.59094,1.583-1.2716,3.51661-2.04675,5.92609A64.8545,64.8545,0,0,0,6.49733,36.92714a13.36989,13.36989,0,0,0,.14148,4.89813c.31629.97046.41175,1.49255.35071,1.14264a23.02529,23.02529,0,0,1,.38843,3.7406c.06323,1.2959.24206,3.068.50073,6.67212.00635.13629.02429,1.69177-.08923,3.21435A17.1086,17.1086,0,0,1,7.5309,58.65c-.05969.30877-.11035.5708-.14746.76294-.035.22778-.02746.369-.03491.404a6.232,6.232,0,0,0,.30615,2.18146,6.6731,6.6731,0,0,0,.40735,1.05,9.3525,9.3525,0,0,0,2.36218,2.81488c2.47364,2.16413,5.04517,2.89563,6.44422,2.47718a2.11388,2.11388,0,0,0,1.06628-.58472c.06323-.10254-.106.0022-.56482.158a3.22225,3.22225,0,0,1-2.068-.136,8.30945,8.30945,0,0,1-2.55957-1.63366,14.67876,14.67876,0,0,1-3.64185-5.02137,3.63155,3.63155,0,0,1-.29358-1.19525,2.87028,2.87028,0,0,1,.01294-.35614l.023-.18164.04749-.27814a11.76489,11.76489,0,0,0,.16406-1.20782,46.80507,46.80507,0,0,0,.07239-6.17688,71.09055,71.09055,0,0,0-.79639-8.19733c-.05908-.37945-.13745-.76587-.22-1.15686-.06433-.37054-.22766-.83874-.26917-1.15393-.02417-.16449-.06262-.31927-.08239-.493l-.01856-.55835a11.48275,11.48275,0,0,1,.03052-1.164,43.50881,43.50881,0,0,1,.704-4.9859c.66931-3.43768,1.58459-7.07147,2.70459-10.80414.56506-1.86026,1.17-3.76932,1.90576-5.61734a12.47561,12.47561,0,0,1,3.38965-4.69937,16.04725,16.04725,0,0,1,5.24133-2.97351,17.4682,17.4682,0,0,1,2.98206-.75131,14.82185,14.82185,0,0,1,1.52405-.15317c.50293-.03433,1.11731-.04047,1.67773-.11862a10.6123,10.6123,0,0,0,3.35718-.956,23.39093,23.39093,0,0,0,2.92529-1.69857l2.72437-1.80869a25.44125,25.44125,0,0,1,2.6914-1.61795A15.04655,15.04655,0,0,1,45.60207,1.718a32.84234,32.84234,0,0,1,6.225.6055,33.15065,33.15065,0,0,1,5.89978,1.64212,2.92861,2.92861,0,0,1,1.03724.59219,1.61249,1.61249,0,0,1,.48779.883,4.9623,4.9623,0,0,1-.21716,2.5115,8.99062,8.99062,0,0,1-.48328,1.2569l-.33667.41721-.46777.55429c-.62744.73623-1.28821,1.43557-1.94825,2.11764a37.77419,37.77419,0,0,1-4.145,3.6763,25.1761,25.1761,0,0,1-4.39086,2.72089,14.9493,14.9493,0,0,1-4.48865,1.29959c-6.40149.5538-11.79895.77365-15.63611.82333a42.06777,42.06777,0,0,1-4.462-.11084c-1.00219-.133-1.63928-.31961-1.785-.306-.78967.01316-1.30872-.01233-1.61328.012a.55155.55155,0,0,0-.309.08658c-.04334.06057-.02332.16213.05493.28063.33191.48969,1.574,1.20807,3.64148,1.58167a47.86361,47.86361,0,0,0,7.45642.13358c2.88-.11228,6.07764-.3313,9.32117-.605l3.2727-.281a19.29647,19.29647,0,0,0,2.21973-.361l1.1947-.30921a3.02065,3.02065,0,0,0,.35632-.11352l.39722-.19364c.26025-.13879.68079-.2926,1.19336-.58951A32.54918,32.54918,0,0,0,52.54872,17.108,59.93753,59.93753,0,0,0,57.851,12.45323a16.10008,16.10008,0,0,0,1.10584-1.3685l.52429-.72.29614-.40857.20764-.46341a9.33191,9.33191,0,0,0,.81189-3.16882,3.97387,3.97387,0,0,0-.56592-2.41352A3.358,3.358,0,0,0,59.114,2.83156a2.94426,2.94426,0,0,0-.42444-.24958,26.8302,26.8302,0,0,0-3.4563-1.03781C54.10781,1.222,53.01723.803,51.84633.56938,50.69277.32206,49.46071.29439,48.27785.1562Z"/><path d="M63.43239,20.85328c1.13037.86109,1.28882,1.68033,1.79627,2.15326A54.96229,54.96229,0,0,0,69.52,26.68086a5.67771,5.67771,0,0,0,.65466.47223s.65479.52032,1.32691,1.00952c.67443.48553,1.36425.938,1.36425.938a30.222,30.222,0,0,0,3.61365,2.56488,8.29413,8.29413,0,0,0,2.47852.98706c.5415.12286.55639.71979-.14319.688A11.41342,11.41342,0,0,1,74.338,31.96864,25.5424,25.5424,0,0,1,70.83937,29.778a50.3314,50.3314,0,0,1-5.27087-4.51666,77.60411,77.60411,0,0,1-6.36621-7.03348c-2.84778-3.60492-3.4436-4.91214-3.07459-4.79755A22.47488,22.47488,0,0,1,59.474,16.57356C61.01674,18.17653,62.69594,19.9301,63.43239,20.85328Z"/><path d="M41.6476,74.17958c-.50769-3.88373.39246-5.847.32263-7.75946-.10791-3.079-.20031-5.71344-.24987-7.12451,3.4497-.09339,6.2135-.16822,7.98193-.21607.03052,1.31622.05713,2.46826.08057,3.47662.02478.61707.04589,1.14618.0642,1.59992.04065.90729.06788,1.51306.08606,1.91754.0409.80872.05213.81189.05213.81189l.203,9.37268c-.06213,4.88446-1.98144,21.97937-1.76587,20.06635-.173,1.53521-1.36523,1.46728-1.39221-.25159-.17078-13.23663-.31531-24.44415-.437-33.88434l-.06006.01068-.01233.00257-.27759.0025-.69055.00476-.6842.00464-.17017.0011c-.02112.00036-.0083.00073-.01416.00109l-.00818.0022-.0249.00812.00989.03674q.0044.88056.00842,1.738.006,1.7395.012,3.3866.0033,3.2948.00635,6.23047c-.0199,3.9176-.03748,7.36987-.05286,10.39813-.04992,3.02789-.09289,5.63159-.12951,7.8526q-.0489,1.66526-.08948,3.04858-.01263.34369-.02466.67066l-.02563.113q-.0282.13835-.05371.26227l.28588.08173.08167.02136.2887.02173.58178.04449c.73609.06018,1.31433.124,1.74927.19055.87012.13312,1.16748.27741,1.01025.42682a4.77059,4.77059,0,0,1-1.71777.45752c-.98511.15351-2.11206.30616-3.97558.45172-.07581-.94366-.15809-1.96576-.24451-3.042-.07141-.99347-.14649-2.0368-.22339-3.10736-.14026-2.142-.26172-4.39447-.355-6.57483C41.60671,80.57441,41.5331,76.50227,41.6476,74.17958Z"/><ellipse cx="28.66807" cy="39.39788" rx="2.06478" ry="1.94255"/><ellipse cx="62.5014" cy="39.39788" rx="2.06478" ry="1.94255"/><path d="M21.18972,50.53663a10.44412,10.44412,0,0,1-3.93787-3.4768,14.07869,14.07869,0,0,1-.94263-1.65308c-.13318-.25861-.26184-.50842-.38782-.75317-.10888-.25373-.2218-.49878-.34448-.73847a15.06951,15.06951,0,0,1-1.64306-6.437,16.06819,16.06819,0,0,1,.67822-5.01489,15.83648,15.83648,0,0,1,2.89636-5.379,17.45756,17.45756,0,0,1,1.56738-1.66711l.23609-.23377.37207-.28772c.24206-.17517.56433-.46063.99621-.73782a15.66239,15.66239,0,0,1,3.35205-1.71015,16.06854,16.06854,0,0,1,1.93189-.58709c.62939-.13849,1.22864-.21671,1.73791-.30539l1.2461-.08142c.30115-.02277.47375-.01975.47375-.01975a14.77238,14.77238,0,0,1,6.15979,1.54938,15.24921,15.24921,0,0,1,5.97486,5.38724,14.68182,14.68182,0,0,1,2.22033,6.03527,16.128,16.128,0,0,1,.10694,1.7829c-.04431,1.67908-.94837,1.52875-1.05286-.16876A13.47,13.47,0,0,0,26.05617,24.47752a13.24933,13.24933,0,0,0-9.89954,13.82474,13.08009,13.08009,0,0,0,2.68409,7.07525,13.3315,13.3315,0,0,0,5.23962,4.12128,13.50932,13.50932,0,0,0,10.57263.0329,13.14826,13.14826,0,0,0,3.56812-2.24359,13.56726,13.56726,0,0,0,2.32922-2.59174,15.20018,15.20018,0,0,0,2.06726-4.45776c.13989-.59479.25586-1.0871.34961-1.48554.05921-.40472.11646-.7146.17041-.93566.10816-.44214.20252-.52875.28284-.30665a9.33712,9.33712,0,0,1-.207,4.54877,14.154,14.154,0,0,1-1.62793,3.82788A14.39606,14.39606,0,0,1,38.343,49.55073a14.60039,14.60039,0,0,1-9.59339,3.27741A14.12656,14.12656,0,0,1,21.18972,50.53663Z"/><path d="M61.503,21.96171a9.38279,9.38279,0,0,1,4.75512.48056,28.43805,28.43805,0,0,1,2.9375,1.37171,15.11283,15.11283,0,0,1,4.85059,3.61267,16.47692,16.47692,0,0,1,2.54273,3.84094,15.24174,15.24174,0,0,1,1.39379,5.38477,8.94263,8.94263,0,0,1,.0542,1.37042c-.00329.33533-.00537.55945-.00683.70917l-.00012.30224s-.0846.61707-.21131,1.54187c-.11023.45441-.23877.98456-.37646,1.55255-.20179.54773-.37085,1.15332-.63147,1.72083a14.36451,14.36451,0,0,1-.82373,1.63995,11.04778,11.04778,0,0,1-.86658,1.34845,9.7347,9.7347,0,0,1-.97327,1.2273,13.90161,13.90161,0,0,1-4.7312,3.31634A15.24959,15.24959,0,0,1,62.183,52.5937a14.72842,14.72842,0,0,1-5.63037-1.62244,15.36879,15.36879,0,0,1-1.39441-.83355c-1.22986-.90979-.62952-1.56153.71436-.8003a13.53508,13.53508,0,0,0,5.43213,1.52137,13.97442,13.97442,0,0,0,5.30481-.73578,13.336,13.336,0,0,0,8.782-14.907,13.19339,13.19339,0,0,0-3.51709-6.93964,12.92586,12.92586,0,0,0-2.82068-2.22412,14.2233,14.2233,0,0,0-1.52539-.78613,16.50519,16.50519,0,0,0-1.5686-.54633,13.6379,13.6379,0,0,0-6.06739-.28754A13.25608,13.25608,0,0,0,51.67958,29.51a12.79828,12.79828,0,0,0-1.86779,3.347,14.17462,14.17462,0,0,0-.803,3.06463,15.08079,15.08079,0,0,0,.05334,4.47742c.39343,2.1792.67554,2.86023.30823,2.575a8.59192,8.59192,0,0,1-1.60169-3.8288,14.20943,14.20943,0,0,1,.81421-8.11071,14.77875,14.77875,0,0,1,6.02015-7.026A13.95457,13.95457,0,0,1,61.503,21.96171Z"/><path d="M47.75759,36.51458a3.48331,3.48331,0,0,0-3.62842-.00879l-.55322-.833a4.48713,4.48713,0,0,1,4.706-.00976Z"/><path d="M74.90517,12.53489a30.51817,30.51817,0,0,1,3.302,2.842,14.77255,14.77255,0,0,1,4.34668,4.1829,15.57243,15.57243,0,0,1,1.23389,2.899c.40283,1.22815.40491,1.23435.40491,1.23435s.3645,1.297.64392,2.61008c.29358,1.31042.5111,2.63806.5111,2.63806a30.733,30.733,0,0,1-.0393,7.22516,14.71524,14.71524,0,0,1-.79761,3.26214,3.985,3.985,0,0,1-.354.79682c-.07972.14733-.09546.17608-.03015.05664-.42261.77685-.91248.40887-.59314-.38367a11.58822,11.58822,0,0,0,.59924-3.25531,27.0327,27.0327,0,0,0-.00806-3.262,46.72683,46.72683,0,0,0-.80786-6.06561,42.65836,42.65836,0,0,0-1.36865-5.30951,8.69343,8.69343,0,0,0-.98169-2.12982,9.61307,9.61307,0,0,0-1.46082-1.6658c-1.08606-1.00812-2.29565-1.87448-3.38647-2.73877-1.10291-.85761-2.12354-1.69592-3.04639-2.51132q-1.33283-1.211-2.47973-2.25318a17.47288,17.47288,0,0,0-2.24476-1.56582,19.93026,19.93026,0,0,0-6.46228-2.321c-1.30358-.23019-1.67712-.28415-1.464-.42291.42358-.27081,3.65844-.44058,6.98522.85867a16.17171,16.17171,0,0,1,4.55994,2.66755C73.2322,11,74.2079,11.92265,74.90517,12.53489Z"/><path d="M8.35659,58.96437c-.67408.88141-1.33472,1.77929-1.96277,2.68994a23.43048,23.43048,0,0,0-1.671,2.7262,1.593,1.593,0,0,0-.11133.30725c-.02295.09155-.03589.22235.07483.26623a4.49366,4.49366,0,0,0,.89074.2876c1.04334.27344,2.13477.49915,3.22352.7215q1.6494.3348,3.28955.66766c.55017.11481,1.10583.24261,1.67236.38776a15.47407,15.47407,0,0,0,1.5376.39288c1.03576.20111,2.13769.35187,3.25915.59906A7.99138,7.99138,0,0,1,22.07668,69.483a2.92223,2.92223,0,0,1,.77612,1.08942,2.0418,2.0418,0,0,1,.17322.69934,2.16294,2.16294,0,0,1-.00012.69153A2.73563,2.73563,0,0,1,22.517,73.2519a2.77138,2.77138,0,0,1-.44873.48926,1.85932,1.85932,0,0,1-.24024.19416l-.111.07653c-.11939.09052-.269.08783-.32788.1482a1.463,1.463,0,0,1,.36328.12274,3.25592,3.25592,0,0,1,1.23987,2.04059,3.86678,3.86678,0,0,1-.0199,1.17474,3.55513,3.55513,0,0,1-.41467,1.13641,3.48862,3.48862,0,0,1-.791.91236,1.44853,1.44853,0,0,1-.16308.12225l-.11158.07727-.02307.01453a.27757.27757,0,0,1-.087.02948c-.02124.007-.06055-.0008-.05762.01282l.09839.02941a.40635.40635,0,0,1,.07495.03241c.03625.04078-.07349-.10351.26477.2937a3.115,3.115,0,0,1,.55237,1.10407,3.41508,3.41508,0,0,1-1.825,3.75153,5.67952,5.67952,0,0,1-3.30347.59112,6.78775,6.78775,0,0,1-.74768-.1087,3.92806,3.92806,0,0,1-.92957-.29706,8.08177,8.08177,0,0,1-1.25732-.80866c-1.37695-1.07183-2.44336-2.08911-3.52966-3.00958A44.30266,44.30266,0,0,0,4.98061,77.059q-.63648-.37235-1.20447-.70459a8.9862,8.9862,0,0,1-1.28039-.86A7.20338,7.20338,0,0,1,.81606,73.60774,6.18172,6.18172,0,0,1,.15712,72.0735l-.1206-.57971A5.039,5.039,0,0,1,.611,68.51362c.31738-.64862.63086-1.23584.929-1.7464a7.45751,7.45751,0,0,1,1.50878-2.01294c.75721-.55786.88465.64765-.37793,4.66236a3.42706,3.42706,0,0,0-.26635,1.39807,3.96363,3.96363,0,0,0,1.76135,2.87347,8.92186,8.92186,0,0,0,1.05139.65979c.42688.24854.87793.4906,1.31348.77631.8927.54327,1.78149,1.17761,2.68579,1.84344,1.79541,1.3418,3.573,2.92408,5.2987,4.43085.43226.37549.86329.73578,1.28577,1.05676a6.19782,6.19782,0,0,0,.60535.41095,1.49826,1.49826,0,0,0,.24487.12635.83993.83993,0,0,0,.21936.06463,3.59161,3.59161,0,0,0,2.47974-.2373c.59216-.36133.69311-.89227.5022-1.09656a1.12768,1.12768,0,0,0-.11316-.13995,2.81022,2.81022,0,0,0-.53675-.37836,13.50939,13.50939,0,0,0-1.50451-.63794,1.61262,1.61262,0,0,1-.81226-.62628,2.46745,2.46745,0,0,0-.30078-.40259.49644.49644,0,0,1-.10767-.4812.68972.68972,0,0,1,.04883-.153.47836.47836,0,0,1,.04248-.0904l.11023-.12445.054-.06091.13232-.07275.25769-.142.3833-.15308.18982-.07483a2.14818,2.14818,0,0,1,.28845-.0393A8.092,8.092,0,0,0,19.93,77.83a1.82657,1.82657,0,0,0,.31445-.18372.8092.8092,0,0,0,.11023-.10516.68417.68417,0,0,0,.12708-.178,1.25327,1.25327,0,0,0,.07336-.17041,2.04551,2.04551,0,0,0,.11414-.55945.684.684,0,0,0-.205-.50732,1.02358,1.02358,0,0,0-.16992-.15644,4.04172,4.04172,0,0,0-.41162-.2492,8.25948,8.25948,0,0,0-1.02381-.39569,2.84727,2.84727,0,0,1-1.28027-.78668,3.5879,3.5879,0,0,1-.30664-.25617.70545.70545,0,0,1-.21777-.28479c.02539-.21838.11108-.2467.1665-.39a1.62979,1.62979,0,0,1,.33435-.44678,2.53658,2.53658,0,0,1,1.10816-.54639,10.87545,10.87545,0,0,0,1.472-.47943,1.09829,1.09829,0,0,0,.24842-.14636c.021-.01917.04895-.03571.06408-.05322l.07593-.08844a.8124.8124,0,0,0,.15881-.31092c.07019-.10583.01368-.2088-.14038-.36932a5.87109,5.87109,0,0,0-1.93493-.59c-.78711-.19073-1.5918-.455-2.40906-.59289a22.70286,22.70286,0,0,1-2.66321-.53827c-.55432-.15674-1.07483-.25238-1.43567-.32337-.74548-.13739-1.00647-.16485-1.00647-.16485-.87207-.19812-1.67663-.54352-2.47412-.733-.22-.05371-1.34265-.29743-2.49841-.59186-.577-.14533-1.16468-.31134-1.65747-.47461-.31189-.09961-.72925-.29419-.9917-.39764-.25159-.14716-.417-.28022-.51856-.34717-1.33947-1.06256.26123-3.09662.50269-3.44092a12.47505,12.47505,0,0,1,3.47485-3.91113C8.52858,57.86555,8.78591,58.4167,8.35659,58.96437Z"/><path d="M75.68117,61.773a8.24589,8.24589,0,0,1,1.64209,2.94788,1.91652,1.91652,0,0,1,.02051.61609.56812.56812,0,0,1-.10169.29876.28544.28544,0,0,1-.19506.08136l-.90943.09961a2.462,2.462,0,0,1-1.10193-.24353,2.45969,2.45969,0,0,0-.57153-.15057c-.04138-.00226-.09717.00287-.12647.00421l-.03466.007-.06458.02087a1.07857,1.07857,0,0,0-.48022.40754,1.31127,1.31127,0,0,0-.25818.63379,1.14868,1.14868,0,0,0,.024.31182.90743.90743,0,0,0,.06848.214l.06067.14856c.03418.06116.102.15082.15149.225.40051.58679,1.54467,1.43945,1.67749,1.94018a1.29811,1.29811,0,0,1,.23779.81574.73127.73127,0,0,1-.028.1654.3558.3558,0,0,1-.15954.18342.88076.88076,0,0,1-.26367.10937,1.6327,1.6327,0,0,0-.44617.1471,1.18755,1.18755,0,0,1-.346.06445,2.79526,2.79526,0,0,1-.55078-.06464c-.45288-.11688-.94885-.30243-1.34814-.38a4.819,4.819,0,0,0-.58545-.08875,2.98851,2.98851,0,0,0-.40747.02.65394.65394,0,0,0-.2107.07849.75965.75965,0,0,0-.18676.79261,3.5186,3.5186,0,0,0,2.37011,2.05566,14.29943,14.29943,0,0,0,3.94593.42639,15.55967,15.55967,0,0,0,3.79187-.4989,10.87726,10.87726,0,0,0,3.097-1.36743,1.982,1.982,0,0,0,.92163-1.91834,4.48371,4.48371,0,0,0-.24463-1.26715,7.09462,7.09462,0,0,0-.55322-1.10608,33.7822,33.7822,0,0,0-3.145-3.97406c-1.95044-2.14734-3.161-3.33056-3.161-3.33056-1.56457-1.75458-2.61072-3.40076-2.67248-4.16254-.07154-.7569.88879-.64911,3.20337,1.30115.11425.10437,1.4071,1.316,3.19274,3.1839.89258.93493,1.90894,2.0318,2.93079,3.28534a23.514,23.514,0,0,1,1.51025,2.02215,12.00076,12.00076,0,0,1,.69617,1.16889,6.41645,6.41645,0,0,1,.517,1.39917,5.93109,5.93109,0,0,1,.02637,3.004,4.63776,4.63776,0,0,1-1.83765,2.4441,10.59778,10.59778,0,0,1-2.20947,1.14215,13.44176,13.44176,0,0,1-2.0669.65637,18.1653,18.1653,0,0,1-3.15857.426c-.76233.03711-1.19714.02253-1.19714.02253-.54468-.02759-1.11255-.17151-1.70154-.26319-.55774-.09228-1.13757-.17016-1.71423-.31109,0,0-.16211-.01917-.428-.0622a5.8546,5.8546,0,0,1-1.08862-.27466,6.4231,6.4231,0,0,1-2.19751-1.32818,4.39262,4.39262,0,0,1-1.0636-2.24359,3.1181,3.1181,0,0,1,.51684-2.83478,2.63682,2.63682,0,0,1,1.47327-.8158l.33362-.04724.04944.01013a.14461.14461,0,0,0,.05993.01c.15808-.01336.14807-.00946.03772-.09234l-.14953-.08466c.02966.02576.24353.09149.204-.00122-.012-.0398-.04871-.16119-.098-.32416a3.28293,3.28293,0,0,1,.08057-1.82464,3.60835,3.60835,0,0,1,.95728-1.46827,2.86677,2.86677,0,0,1,.9812-.61584,2.38848,2.38848,0,0,1,.41662-.10565,1.98786,1.98786,0,0,1,.20471-.02344.029.029,0,0,0,.019.01654l.1438.0816.392.23627a2.99361,2.99361,0,0,0,.31617.16876c.037.01172.10168.04969.12439-.00177a.95718.95718,0,0,0-.00049-.12841.6838.6838,0,0,1,.05981-.26288,1.42792,1.42792,0,0,0,.08118-.64637c-.02515-.30633-.04456-.54357-.05994-.73071a.80969.80969,0,0,1,.08484-.44208C75.29189,61.50343,75.51711,61.56611,75.68117,61.773Z"/><path d="M56.53322,68.25184a1.79793,1.79793,0,0,0,.99658-.38672c.81348-.12487-.38171-1.92858,2.80457-1.01464.178.05108.161-.00428.547-.772.17224-.34283.94311-.11444,1.10522-.15637,1.5813-.40869-.1322-1.508,3.48865-.75873,2.1781.45063,3.344-.89044,2.66907,1.45453-.25147.87366-5.08912,2.09778-8.50513,3.27863-2.03906.70483-.73816.34247-2.12586.83679C55.2831,71.52784,55.56105,68.40114,56.53322,68.25184Z"/><path d="M24.96974,15.94368a19.60888,19.60888,0,0,0,2.68067-.18683c2.03369-.10425.6593-.947,7.4613-.69263.37915.006.38648-.02316,1.89405-.51459A20.56128,20.56128,0,0,1,39.716,14.236a8.93738,8.93738,0,0,0,2.84155-.82867c.32312-.13153.788-.23175,1.57154-.46945.80017-.22611,2.07568-.63992,3.95129-1.23547a11.6698,11.6698,0,0,0,2.957-1.38965A4.03272,4.03272,0,0,0,52.49745,8.537c.21448-.52054.27454-.83011.385-.74634.06238.08036.277.54843.01819,1.63367a4.95588,4.95588,0,0,1-2.21814,2.38415,38.4227,38.4227,0,0,1-5.25061,2.52268A30.95924,30.95924,0,0,1,38.266,16.0113c-2.47827.352-4.97107.59467-7.25049.793-5.44409.42264-2.04187.2096-5.76135.458C19.26723,17.56752,22.5519,15.98189,24.96974,15.94368Z"/><path d="M87.72524,44.08595a8.04037,8.04037,0,0,1,.21521,2.7533,23.995,23.995,0,0,1,.37622,5.654c-.02735.41943-.05127.63318-.06848.74127l-.01013.109a6.84322,6.84322,0,0,1-.53492,1.78161,5.8521,5.8521,0,0,1-.36609.64417c-.13781.18628-.30493.41046-.39184.50952-.19068.22681-.31775.37811-.31775.37811a20.28834,20.28834,0,0,0-2.75037,3.22846c-.431.66949-.7417,1.35742-1.04565,1.7879-.3042.43085-.55542.53943-.4065.4444-.506.31012-.65942-.322-.47009-.51465A11.51571,11.51571,0,0,0,82.69911,59.76a13.11388,13.11388,0,0,1,.9823-1.98657,16.39377,16.39377,0,0,1,1.205-1.70636c.39563-.514.93726-1.0625,1.13464-1.39136a6.94546,6.94546,0,0,0,.74988-2.9682,22.0997,22.0997,0,0,0-.0188-2.99408,69.94651,69.94651,0,0,0-1.3623-8.85425c-.90784-4.28491-1.16113-5.60315-.822-5.39312a14.28868,14.28868,0,0,1,1.80761,4.06842A29.26769,29.26769,0,0,1,87.72524,44.08595Z"/></g></g></svg>